<?xml version="1.0" standalone="no"?>
<!DOCTYPE svg PUBLIC "-//W3C//DTD SVG 20010904//EN"
 "http://www.w3.org/TR/2001/REC-SVG-20010904/DTD/svg10.dtd">
<svg version="1.0" xmlns="http://www.w3.org/2000/svg"
 width="1182.000000pt" height="1182.000000pt" viewBox="0 0 1182.000000 1182.000000"
 preserveAspectRatio="xMidYMid meet">
<metadata>
Created by potrace 1.15, written by Peter Selinger 2001-2017
</metadata>
<g transform="translate(0.000000,1182.000000) scale(0.100000,-0.100000)"
fill="#000000" stroke="none">
<path d="M563 10261 c-63 -21 -115 -60 -154 -114 -59 -82 -60 -88 -57 -718 3
-562 3 -575 24 -620 31 -67 87 -124 152 -156 l57 -28 2360 -5 2360 -5 56 -28
c67 -32 142 -109 172 -175 22 -47 22 -49 22 -742 l0 -695 -28 -56 c-32 -67
-109 -142 -175 -172 l-47 -22 -1470 -5 -1470 -5 -46 -21 c-67 -31 -124 -87
-156 -152 l-28 -57 -5 -645 -5 -645 -28 -56 c-32 -67 -109 -142 -175 -172 -46
-22 -56 -22 -692 -27 -632 -5 -646 -5 -691 -26 -67 -31 -124 -87 -156 -152
l-28 -57 0 -600 0 -600 27 -50 c32 -60 87 -114 148 -146 l45 -24 645 -5 645
-5 61 -28 c73 -34 132 -92 171 -167 l28 -55 5 -645 5 -645 23 -50 c29 -63 83
-119 147 -153 l50 -27 2302 -3 2302 -2 58 21 c78 30 152 104 182 183 21 58 22
63 19 640 l-3 581 -28 57 c-31 64 -89 120 -157 152 l-45 21 -2360 5 -2360 5
-47 22 c-66 30 -143 105 -175 172 l-28 56 0 695 0 695 29 58 c36 70 99 130
174 165 l57 27 1470 5 1470 5 50 27 c60 32 114 87 146 148 l24 45 5 645 5 645
29 62 c34 75 95 134 174 171 l57 27 645 5 645 5 50 27 c60 32 114 87 146 148
l24 45 0 605 0 605 -27 50 c-34 64 -90 118 -153 147 l-50 23 -645 5 -645 5
-55 28 c-75 39 -133 98 -167 171 l-28 61 -5 645 -5 645 -27 50 c-35 68 -102
128 -172 154 l-57 21 -2282 0 c-2164 -1 -2285 -2 -2334 -19z"/>
<path d="M8244 10266 c-87 -28 -158 -95 -201 -191 -17 -37 -18 -84 -18 -625
l0 -585 26 -56 c33 -69 88 -127 154 -159 l50 -25 645 -5 645 -5 57 -27 c69
-32 135 -96 168 -163 l25 -50 5 -3315 5 -3315 26 -56 c33 -69 89 -127 155
-160 l49 -24 600 0 600 0 49 24 c66 33 122 91 155 160 l26 56 3 3205 c2 2194
-1 3227 -8 3273 -18 116 -70 190 -173 245 l-52 27 -645 5 -645 5 -49 23 c-68
31 -110 65 -146 117 -67 97 -64 65 -70 775 l-5 645 -23 43 c-30 56 -90 114
-150 143 l-47 24 -585 2 c-457 2 -594 -1 -626 -11z m2717 -2086 c16 -9 19 -22
19 -78 0 -40 -5 -73 -12 -80 -9 -9 -81 -12 -265 -12 -239 0 -253 -1 -263 -19
-13 -24 -13 -141 0 -161 7 -12 43 -16 177 -20 l168 -5 3 -75 c2 -41 8 -80 14
-87 7 -8 36 -13 82 -13 43 0 77 -5 84 -12 7 -7 12 -40 12 -78 0 -38 -5 -71
-12 -78 -7 -7 -41 -12 -83 -12 -42 0 -76 -5 -83 -12 -7 -7 -12 -41 -12 -85 0
-61 -3 -74 -19 -83 -30 -16 -472 -13 -495 3 -14 10 -16 25 -14 87 l3 75 254 3
c167 1 259 6 268 13 9 8 13 37 13 90 0 67 -3 80 -19 89 -11 5 -85 10 -169 10
-110 0 -152 3 -160 13 -6 7 -12 46 -14 87 l-3 75 -77 3 c-49 2 -80 8 -88 16
-6 9 -10 43 -8 88 l3 73 75 3 c41 2 80 8 87 14 8 7 13 36 13 84 0 59 3 75 18
83 23 14 477 14 503 1z m-190 -1090 c16 -9 19 -22 19 -83 0 -44 5 -78 12 -85
7 -7 41 -12 83 -12 42 0 76 -5 83 -12 7 -7 12 -40 12 -80 0 -56 -3 -69 -19
-78 -27 -14 -134 -13 -149 2 -7 7 -12 41 -12 83 0 42 -5 76 -12 83 -8 8 -60
12 -169 12 -130 0 -160 -3 -173 -16 -14 -13 -16 -51 -16 -265 0 -154 4 -258
10 -270 10 -18 23 -19 173 -19 114 0 167 4 175 12 7 7 12 41 12 85 0 85 8 93
90 93 81 0 90 -9 90 -88 0 -40 -5 -73 -12 -80 -7 -7 -41 -12 -85 -12 -87 0
-93 -7 -93 -102 0 -37 -5 -69 -12 -76 -8 -8 -58 -12 -159 -12 -178 0 -179 0
-179 99 0 44 -5 72 -13 79 -7 6 -46 12 -87 14 l-75 3 0 270 0 270 75 3 c41 2
80 8 87 14 8 7 13 35 13 79 0 98 1 99 171 99 78 0 149 -5 160 -10z m-341
-1262 c3 -91 9 -170 13 -175 5 -4 84 -10 175 -13 l167 -5 6 -80 c3 -47 6 23 7
167 1 135 5 253 8 262 5 13 22 16 84 16 62 0 79 -3 84 -16 3 -9 6 -210 6 -448
0 -323 -3 -435 -12 -444 -16 -16 -140 -16 -156 0 -8 8 -12 64 -12 185 0 160
-1 173 -19 183 -11 6 -87 10 -175 10 -178 0 -163 -9 -169 105 -2 33 -4 -63 -5
-212 l-2 -273 -23 -5 c-13 -4 -50 -5 -82 -3 l-60 3 -3 445 c-1 245 0 451 3
458 3 9 26 12 82 10 l78 -3 5 -167z m358 -988 c4 -113 1 -110 86 -110 111 0
106 14 106 -275 0 -134 -3 -250 -6 -259 -5 -13 -22 -16 -78 -16 -39 0 -78 -5
-86 -10 -11 -6 -16 -33 -20 -92 l-5 -83 -159 -3 c-108 -2 -163 1 -172 9 -10 8
-14 35 -14 85 0 47 -4 76 -12 81 -7 4 -47 10 -88 13 l-75 5 -3 259 c-2 178 1
263 9 272 7 8 39 14 87 16 l77 3 3 75 c2 41 8 80 14 87 8 10 48 13 172 11
l161 -3 3 -65z m2 -1108 c4 -59 9 -86 20 -92 8 -5 47 -10 86 -10 56 0 73 -3
78 -16 3 -9 6 -128 6 -264 0 -289 8 -270 -109 -270 -81 0 -79 3 -83 -110 l-3
-65 -159 -3 c-105 -2 -163 1 -172 9 -8 7 -14 39 -16 87 l-3 77 -77 3 c-48 2
-80 8 -87 16 -8 9 -11 94 -9 272 l3 259 75 5 c41 3 81 9 88 13 8 5 12 34 12
81 0 43 5 77 12 84 9 9 57 12 173 10 l160 -3 5 -83z m-376 -1008 c14 -5 16
-46 16 -359 0 -308 2 -356 16 -369 13 -14 51 -16 263 -16 179 0 250 -3 259
-12 12 -12 17 -114 6 -142 -5 -14 -38 -16 -265 -16 l-259 0 -5 23 c-3 12 -6
51 -7 87 l-3 65 -65 3 c-36 1 -75 4 -87 7 l-23 5 0 359 c0 278 3 360 13 364
18 8 123 8 141 1z"/>
<path d="M10436 4714 c-3 -8 -6 -129 -6 -269 0 -203 3 -255 14 -264 9 -8 66
-11 182 -9 l169 3 0 275 0 275 -176 3 c-155 2 -177 0 -183 -14z"/>
<path d="M10442 3628 c-9 -9 -12 -80 -12 -269 0 -221 2 -260 16 -273 13 -13
43 -16 168 -16 106 0 157 4 169 13 16 11 17 37 15 282 l-3 270 -170 3 c-124 2
-174 -1 -183 -10z"/>
</g>
</svg>
